<svg width="48" height="48" viewBox="0 0 48 48" fill="none" xmlns="http://www.w3.org/2000/svg">
<path d="M32.625 37.875H32.125V38.375V41.25C32.125 41.8799 31.8748 42.484 31.4294 42.9294C30.984 43.3748 30.3799 43.625 29.75 43.625H6.75C6.12011 43.625 5.51602 43.3748 5.07062 42.9294C4.62522 42.484 4.375 41.8799 4.375 41.25V18.25C4.375 17.6201 4.62522 17.016 5.07062 16.5706C5.51602 16.1252 6.12011 15.875 6.75 15.875H9.625H10.125V15.375V12.5V12H9.625H6.75C5.0924 12 3.50269 12.6585 2.33058 13.8306L2.68414 14.1841L2.33058 13.8306C1.15848 15.0027 0.5 16.5924 0.5 18.25V41.25C0.5 42.9076 1.15848 44.4973 2.33058 45.6694C3.50269 46.8415 5.0924 47.5 6.75 47.5H29.75C31.4076 47.5 32.9973 46.8415 34.1694 45.6694C35.3415 44.4973 36 42.9076 36 41.25V38.375V37.875H35.5H32.625ZM13.8306 2.33058L14.1841 2.68414L13.8306 2.33058C12.6585 3.50269 12 5.0924 12 6.75V29.75C12 31.4076 12.6585 32.9973 13.8306 34.1694C15.0027 35.3415 16.5924 36 18.25 36H41.25C42.9076 36 44.4973 35.3415 45.6694 34.1694C46.8415 32.9973 47.5 31.4076 47.5 29.75V6.75C47.5 5.0924 46.8415 3.50269 45.6694 2.33058C44.4973 1.15848 42.9076 0.5 41.25 0.5H18.25C16.5924 0.5 15.0027 1.15848 13.8306 2.33058ZM16.5706 5.07062C17.016 4.62522 17.6201 4.375 18.25 4.375H41.25C41.8799 4.375 42.484 4.62522 42.9294 5.07062C43.3748 5.51602 43.625 6.12011 43.625 6.75V29.75C43.625 30.3799 43.3748 30.984 42.9294 31.4294C42.484 31.8748 41.8799 32.125 41.25 32.125H18.25C17.6201 32.125 17.016 31.8748 16.5706 31.4294C16.1252 30.984 15.875 30.3799 15.875 29.75V6.75C15.875 6.12011 16.1252 5.51602 16.5706 5.07062Z" fill="white" stroke="white"/>
</svg>
