<svg width="1080" height="1694" viewBox="0 0 1080 1694" fill="none" xmlns="http://www.w3.org/2000/svg">
<g style="mix-blend-mode:overlay">
<path d="M74.7507 1541.82C-771.042 972.086 -735.788 911.025 180.512 1358.64C1194.53 1858.24 1229.78 1797.18 286.272 1175.45C-655.32 550.41 -620.066 489.348 392.033 992.27C974.047 1264.49 1009.3 1203.42 497.794 809.086C-21.3357 427.952 13.9179 366.891 603.555 625.903C1507.56 1044.04 1542.81 982.98 709.316 442.72C-114.489 -114.319 -79.2357 -175.38 815.077 259.537C1134.01 388.977 1169.27 327.916 920.838 76.3532C660.839 -155.172 696.093 -216.233 1026.6 -106.83C1635.03 126.876 1670.29 65.8145 1132.36 -290.013" stroke="black" stroke-width="2"/>
</g>
</svg>
